<svg width="25" height="25" viewBox="0 0 25 25" fill="none" xmlns="http://www.w3.org/2000/svg">
<path d="M10.5461 3.2666L11.5984 2.18262C12.0439 1.72363 12.7644 1.72363 13.2052 2.18262L22.4195 11.6699C22.865 12.1289 22.865 12.8711 22.4195 13.3252L13.2052 22.8174C12.7597 23.2764 12.0392 23.2764 11.5984 22.8174L10.5461 21.7334C10.0959 21.2695 10.1053 20.5127 10.5651 20.0586L16.2766 14.4531H2.65429C2.02389 14.4531 1.51672 13.9307 1.51672 13.2813V11.7188C1.51672 11.0693 2.02389 10.5469 2.65429 10.5469H16.2766L10.5651 4.94141C10.1006 4.4873 10.0911 3.73047 10.5461 3.2666Z" fill="#F59E0B"/>
</svg>
