<svg width="266" height="31" viewBox="0 0 266 31" fill="none" xmlns="http://www.w3.org/2000/svg">
<path d="M8.44 1.44C12.1733 1.44 14.8933 2.17333 16.6 3.64C18.3067 5.10667 19.16 7.17333 19.16 9.84C19.16 11.0133 18.96 12.1467 18.56 13.24C18.1867 14.3067 17.56 15.2667 16.68 16.12C15.8 16.9733 14.6267 17.6533 13.16 18.16C11.6933 18.64 9.89333 18.88 7.76 18.88H4.48V30H0.88V1.44H8.44ZM8.12 4.52H4.48V15.8H7.36C9.17333 15.8 10.68 15.6133 11.88 15.24C13.08 14.84 13.9733 14.2133 14.56 13.36C15.1467 12.5067 15.44 11.3867 15.44 10C15.44 8.16 14.8533 6.78667 13.68 5.88C12.5067 4.97333 10.6533 4.52 8.12 4.52ZM28.1388 8.56V30H24.6188V8.56H28.1388ZM26.4188 0.519998C26.9521 0.519998 27.4188 0.706665 27.8188 1.08C28.2454 1.42666 28.4588 1.98666 28.4588 2.76C28.4588 3.50666 28.2454 4.06666 27.8188 4.44C27.4188 4.81333 26.9521 5 26.4188 5C25.8321 5 25.3388 4.81333 24.9388 4.44C24.5388 4.06666 24.3388 3.50666 24.3388 2.76C24.3388 1.98666 24.5388 1.42666 24.9388 1.08C25.3388 0.706665 25.8321 0.519998 26.4188 0.519998ZM48.7713 30H33.0913V27.68L44.6113 11.28H33.7713V8.56H48.4913V11.2L37.1313 27.28H48.7713V30ZM67.5603 30H51.8803V27.68L63.4003 11.28H52.5603V8.56H67.2803V11.2L55.9203 27.28H67.5603V30ZM80.6294 8.2C83.2427 8.2 85.176 8.77333 86.4294 9.92C87.6827 11.0667 88.3094 12.8933 88.3094 15.4V30H85.7494L85.0694 26.96H84.9094C84.296 27.7333 83.656 28.3867 82.9894 28.92C82.3494 29.4267 81.6027 29.8 80.7494 30.04C79.9227 30.28 78.9094 30.4 77.7094 30.4C76.4294 30.4 75.2694 30.1733 74.2294 29.72C73.216 29.2667 72.416 28.5733 71.8294 27.64C71.2427 26.68 70.9494 25.48 70.9494 24.04C70.9494 21.9067 71.7894 20.2667 73.4694 19.12C75.1494 17.9467 77.736 17.3067 81.2294 17.2L84.8694 17.08V15.8C84.8694 14.0133 84.4827 12.7733 83.7094 12.08C82.936 11.3867 81.8427 11.04 80.4294 11.04C79.3094 11.04 78.2427 11.2133 77.2294 11.56C76.216 11.88 75.2694 12.2533 74.3894 12.68L73.3094 10.04C74.2427 9.53333 75.3494 9.10667 76.6294 8.76C77.9094 8.38667 79.2427 8.2 80.6294 8.2ZM81.6694 19.64C79.0027 19.7467 77.1494 20.1733 76.1094 20.92C75.096 21.6667 74.5894 22.72 74.5894 24.08C74.5894 25.28 74.9494 26.16 75.6694 26.72C76.416 27.28 77.3627 27.56 78.5094 27.56C80.3227 27.56 81.8294 27.0667 83.0294 26.08C84.2294 25.0667 84.8294 23.52 84.8294 21.44V19.52L81.6694 19.64ZM110.402 19.04L103.002 8.56H107.002L112.522 16.64L118.002 8.56H121.962L114.562 19.04L122.362 30H118.362L112.522 21.44L106.602 30H102.642L110.402 19.04ZM159.204 30H155.604V16.68H140.964V30H137.364V1.44H140.964V13.52H155.604V1.44H159.204V30ZM184.453 8.56V30H181.573L181.053 27.16H180.893C180.439 27.9067 179.853 28.52 179.133 29C178.413 29.48 177.626 29.8267 176.773 30.04C175.919 30.28 175.026 30.4 174.093 30.4C172.386 30.4 170.946 30.1333 169.773 29.6C168.626 29.04 167.759 28.1867 167.173 27.04C166.586 25.8933 166.293 24.4133 166.293 22.6V8.56H169.853V22.36C169.853 24.0667 170.239 25.3467 171.013 26.2C171.786 27.0533 172.986 27.48 174.613 27.48C176.213 27.48 177.466 27.1867 178.373 26.6C179.306 25.9867 179.959 25.1067 180.333 23.96C180.733 22.7867 180.933 21.3733 180.933 19.72V8.56H184.453ZM201.579 8.16C204.139 8.16 206.073 8.78667 207.379 10.04C208.686 11.2667 209.339 13.2667 209.339 16.04V30H205.859V16.28C205.859 14.5467 205.473 13.2533 204.699 12.4C203.926 11.5467 202.713 11.12 201.059 11.12C198.686 11.12 197.046 11.7867 196.139 13.12C195.233 14.4533 194.779 16.3733 194.779 18.88V30H191.259V8.56H194.099L194.619 11.48H194.819C195.299 10.7333 195.886 10.12 196.579 9.64C197.299 9.13333 198.086 8.76 198.939 8.52C199.793 8.28 200.673 8.16 201.579 8.16ZM223.146 27.52C223.679 27.52 224.226 27.48 224.786 27.4C225.346 27.2933 225.799 27.1867 226.146 27.08V29.76C225.773 29.9467 225.239 30.0933 224.546 30.2C223.853 30.3333 223.186 30.4 222.546 30.4C221.426 30.4 220.386 30.2133 219.426 29.84C218.493 29.44 217.733 28.76 217.146 27.8C216.559 26.84 216.266 25.4933 216.266 23.76V11.28H213.226V9.6L216.306 8.2L217.706 3.64H219.786V8.56H225.986V11.28H219.786V23.68C219.786 24.9867 220.093 25.96 220.706 26.6C221.346 27.2133 222.159 27.52 223.146 27.52ZM238.719 8.16C240.559 8.16 242.132 8.56 243.439 9.36C244.772 10.16 245.786 11.2933 246.479 12.76C247.199 14.2 247.559 15.8933 247.559 17.84V19.96H232.879C232.932 22.3867 233.546 24.24 234.719 25.52C235.919 26.7733 237.586 27.4 239.719 27.4C241.079 27.4 242.279 27.28 243.319 27.04C244.386 26.7733 245.479 26.4 246.599 25.92V29C245.506 29.48 244.426 29.8267 243.359 30.04C242.292 30.28 241.026 30.4 239.559 30.4C237.532 30.4 235.732 29.9867 234.159 29.16C232.612 28.3333 231.399 27.1067 230.519 25.48C229.666 23.8267 229.239 21.8133 229.239 19.44C229.239 17.0933 229.626 15.08 230.399 13.4C231.199 11.72 232.306 10.4267 233.719 9.52C235.159 8.61333 236.826 8.16 238.719 8.16ZM238.679 11.04C236.999 11.04 235.666 11.5867 234.679 12.68C233.719 13.7467 233.146 15.24 232.959 17.16H243.879C243.879 15.9333 243.692 14.8667 243.319 13.96C242.946 13.0533 242.372 12.3467 241.599 11.84C240.852 11.3067 239.879 11.04 238.679 11.04ZM263.017 8.16C263.417 8.16 263.844 8.18667 264.297 8.24C264.777 8.26667 265.191 8.32 265.537 8.4L265.097 11.64C264.751 11.56 264.364 11.4933 263.937 11.44C263.537 11.3867 263.151 11.36 262.777 11.36C261.951 11.36 261.164 11.5333 260.417 11.88C259.671 12.2267 259.004 12.72 258.417 13.36C257.831 13.9733 257.364 14.72 257.017 15.6C256.697 16.48 256.537 17.4667 256.537 18.56V30H253.017V8.56H255.897L256.297 12.48H256.457C256.911 11.68 257.457 10.96 258.097 10.32C258.737 9.65333 259.471 9.13333 260.297 8.76C261.124 8.36 262.031 8.16 263.017 8.16Z" fill="white"/>
</svg>
