<svg width="130" height="59" viewBox="0 0 130 59" fill="none" xmlns="http://www.w3.org/2000/svg">
<path d="M8.44 1.44C12.1733 1.44 14.8933 2.17333 16.6 3.64C18.3067 5.10667 19.16 7.17333 19.16 9.84C19.16 11.0133 18.96 12.1467 18.56 13.24C18.1867 14.3067 17.56 15.2667 16.68 16.12C15.8 16.9733 14.6267 17.6533 13.16 18.16C11.6933 18.64 9.89333 18.88 7.76 18.88H4.48V30H0.88V1.44H8.44ZM8.12 4.52H4.48V15.8H7.36C9.17333 15.8 10.68 15.6133 11.88 15.24C13.08 14.84 13.9733 14.2133 14.56 13.36C15.1467 12.5067 15.44 11.3867 15.44 10C15.44 8.16 14.8533 6.78667 13.68 5.88C12.5067 4.97333 10.6533 4.52 8.12 4.52ZM28.1388 8.56V30H24.6188V8.56H28.1388ZM26.4188 0.519998C26.9521 0.519998 27.4188 0.706665 27.8188 1.08C28.2454 1.42666 28.4588 1.98666 28.4588 2.76C28.4588 3.50666 28.2454 4.06666 27.8188 4.44C27.4188 4.81333 26.9521 5 26.4188 5C25.8321 5 25.3388 4.81333 24.9388 4.44C24.5388 4.06666 24.3388 3.50666 24.3388 2.76C24.3388 1.98666 24.5388 1.42666 24.9388 1.08C25.3388 0.706665 25.8321 0.519998 26.4188 0.519998ZM48.7713 30H33.0913V27.68L44.6113 11.28H33.7713V8.56H48.4913V11.2L37.1313 27.28H48.7713V30ZM67.5603 30H51.8803V27.68L63.4003 11.28H52.5603V8.56H67.2803V11.2L55.9203 27.28H67.5603V30ZM80.6294 8.2C83.2427 8.2 85.176 8.77333 86.4294 9.92C87.6827 11.0667 88.3094 12.8933 88.3094 15.4V30H85.7494L85.0694 26.96H84.9094C84.296 27.7333 83.656 28.3867 82.9894 28.92C82.3494 29.4267 81.6027 29.8 80.7494 30.04C79.9227 30.28 78.9094 30.4 77.7094 30.4C76.4294 30.4 75.2694 30.1733 74.2294 29.72C73.216 29.2667 72.416 28.5733 71.8294 27.64C71.2427 26.68 70.9494 25.48 70.9494 24.04C70.9494 21.9067 71.7894 20.2667 73.4694 19.12C75.1494 17.9467 77.736 17.3067 81.2294 17.2L84.8694 17.08V15.8C84.8694 14.0133 84.4827 12.7733 83.7094 12.08C82.936 11.3867 81.8427 11.04 80.4294 11.04C79.3094 11.04 78.2427 11.2133 77.2294 11.56C76.216 11.88 75.2694 12.2533 74.3894 12.68L73.3094 10.04C74.2427 9.53333 75.3494 9.10667 76.6294 8.76C77.9094 8.38667 79.2427 8.2 80.6294 8.2ZM81.6694 19.64C79.0027 19.7467 77.1494 20.1733 76.1094 20.92C75.096 21.6667 74.5894 22.72 74.5894 24.08C74.5894 25.28 74.9494 26.16 75.6694 26.72C76.416 27.28 77.3627 27.56 78.5094 27.56C80.3227 27.56 81.8294 27.0667 83.0294 26.08C84.2294 25.0667 84.8294 23.52 84.8294 21.44V19.52L81.6694 19.64ZM110.402 19.04L103.002 8.56H107.002L112.522 16.64L118.002 8.56H121.962L114.562 19.04L122.362 30H118.362L112.522 21.44L106.602 30H102.642L110.402 19.04ZM22.72 58H19.12V44.68H4.48V58H0.88V29.44H4.48V41.52H19.12V29.44H22.72V58ZM47.9684 36.56V58H45.0884L44.5684 55.16H44.4084C43.9551 55.9067 43.3684 56.52 42.6484 57C41.9284 57.48 41.1418 57.8267 40.2884 58.04C39.4351 58.28 38.5418 58.4 37.6084 58.4C35.9018 58.4 34.4618 58.1333 33.2884 57.6C32.1418 57.04 31.2751 56.1867 30.6884 55.04C30.1018 53.8933 29.8084 52.4133 29.8084 50.6V36.56H33.3684V50.36C33.3684 52.0667 33.7551 53.3467 34.5284 54.2C35.3018 55.0533 36.5018 55.48 38.1284 55.48C39.7284 55.48 40.9818 55.1867 41.8884 54.6C42.8218 53.9867 43.4751 53.1067 43.8484 51.96C44.2484 50.7867 44.4484 49.3733 44.4484 47.72V36.56H47.9684ZM65.095 36.16C67.655 36.16 69.5883 36.7867 70.895 38.04C72.2017 39.2667 72.855 41.2667 72.855 44.04V58H69.375V44.28C69.375 42.5467 68.9883 41.2533 68.215 40.4C67.4417 39.5467 66.2283 39.12 64.575 39.12C62.2017 39.12 60.5617 39.7867 59.655 41.12C58.7483 42.4533 58.295 44.3733 58.295 46.88V58H54.775V36.56H57.615L58.135 39.48H58.335C58.815 38.7333 59.4017 38.12 60.095 37.64C60.815 37.1333 61.6017 36.76 62.455 36.52C63.3083 36.28 64.1883 36.16 65.095 36.16ZM86.6616 55.52C87.1949 55.52 87.7416 55.48 88.3016 55.4C88.8616 55.2933 89.3149 55.1867 89.6616 55.08V57.76C89.2882 57.9467 88.7549 58.0933 88.0616 58.2C87.3682 58.3333 86.7016 58.4 86.0616 58.4C84.9416 58.4 83.9016 58.2133 82.9416 57.84C82.0082 57.44 81.2482 56.76 80.6616 55.8C80.0749 54.84 79.7816 53.4933 79.7816 51.76V39.28H76.7416V37.6L79.8216 36.2L81.2216 31.64H83.3016V36.56H89.5016V39.28H83.3016V51.68C83.3016 52.9867 83.6082 53.96 84.2216 54.6C84.8616 55.2133 85.6749 55.52 86.6616 55.52ZM102.235 36.16C104.075 36.16 105.648 36.56 106.955 37.36C108.288 38.16 109.301 39.2933 109.995 40.76C110.715 42.2 111.075 43.8933 111.075 45.84V47.96H96.3947C96.448 50.3867 97.0614 52.24 98.2347 53.52C99.4347 54.7733 101.101 55.4 103.235 55.4C104.595 55.4 105.795 55.28 106.835 55.04C107.901 54.7733 108.995 54.4 110.115 53.92V57C109.021 57.48 107.941 57.8267 106.875 58.04C105.808 58.28 104.541 58.4 103.075 58.4C101.048 58.4 99.248 57.9867 97.6747 57.16C96.128 56.3333 94.9147 55.1067 94.0347 53.48C93.1814 51.8267 92.7547 49.8133 92.7547 47.44C92.7547 45.0933 93.1414 43.08 93.9147 41.4C94.7147 39.72 95.8214 38.4267 97.2347 37.52C98.6747 36.6133 100.341 36.16 102.235 36.16ZM102.195 39.04C100.515 39.04 99.1814 39.5867 98.1947 40.68C97.2347 41.7467 96.6614 43.24 96.4747 45.16H107.395C107.395 43.9333 107.208 42.8667 106.835 41.96C106.461 41.0533 105.888 40.3467 105.115 39.84C104.368 39.3067 103.395 39.04 102.195 39.04ZM126.533 36.16C126.933 36.16 127.359 36.1867 127.813 36.24C128.293 36.2667 128.706 36.32 129.053 36.4L128.613 39.64C128.266 39.56 127.879 39.4933 127.453 39.44C127.053 39.3867 126.666 39.36 126.293 39.36C125.466 39.36 124.679 39.5333 123.933 39.88C123.186 40.2267 122.519 40.72 121.933 41.36C121.346 41.9733 120.879 42.72 120.533 43.6C120.213 44.48 120.053 45.4667 120.053 46.56V58H116.533V36.56H119.413L119.813 40.48H119.973C120.426 39.68 120.973 38.96 121.613 38.32C122.253 37.6533 122.986 37.1333 123.813 36.76C124.639 36.36 125.546 36.16 126.533 36.16Z" fill="black"/>
</svg>
